<svg id="Capa_7" data-name="Capa 7" xmlns="http://www.w3.org/2000/svg" xmlns:xlink="http://www.w3.org/1999/xlink" viewBox="0 0 2118.35 3000"><defs><style>.cls-1{fill:#1f577b;}.cls-2{fill:#193448;}.cls-3{fill:#3db3e8;}.cls-3,.cls-4,.cls-5,.cls-6,.cls-7,.cls-8,.cls-9{stroke:#1082bb;stroke-miterlimit:10;}.cls-4{fill:#454444;}.cls-5{fill:url(#Degradado_sin_nombre_5);}.cls-6{fill:url(#Degradado_sin_nombre_6);}.cls-7{fill:#e9e9e9;}.cls-8{fill:#e6e9ed;}.cls-9{fill:#36ace4;}</style><linearGradient id="Degradado_sin_nombre_5" x1="1067.39" y1="1673.82" x2="1669.74" y2="630.51" gradientUnits="userSpaceOnUse"><stop offset="0" stop-color="#229ba0"/><stop offset="1" stop-color="#1082bb"/></linearGradient><linearGradient id="Degradado_sin_nombre_6" x1="1726.05" y1="1277.47" x2="1805.62" y2="1139.64" xlink:href="#Degradado_sin_nombre_5"/></defs><title>Logo</title><path class="cls-1" d="M1500,1807.39c-407,0-736.89-329.92-736.89-736.89S1093,333.62,1500,333.62V0C915.31,0,441.33,474,441.33,1058.67,414.06,1769.7,1500,2997.85,1500,2997.85Z" transform="translate(-440.82)"/><path class="cls-2" d="M1500,1809.54c407,0,736.89-329.91,736.89-736.88S1907,335.77,1500,335.77V2.15c584.69,0,1058.67,474,1058.67,1058.68C2585.94,1771.86,1500,3000,1500,3000Z" transform="translate(-440.82)"/><path class="cls-3" d="M1102.78,1327.88c-24.65-60.62-34.85-119-30.4-159.28-16.09,3.19-37.36,5.34-61.07,5.89a489.66,489.66,0,0,0,145.67,251C1137.25,1399.47,1118.28,1366,1102.78,1327.88Z" transform="translate(-440.82)"/><path class="cls-3" d="M1281.3,617.31c64.74-31.51,131.09-42.37,207.93-42.37,147.37,0,279.55,65,369.41,168-27.87-2.29-57.5-3.52-88.23-3.52-228.39-7.19-221.93,66.07-255,2.87S1281.3,617.31,1281.3,617.31Z" transform="translate(-440.82)"/><path class="cls-4" d="M1531.19,771.53" transform="translate(-440.82)"/><path class="cls-3" d="M1187.92,678.47A488.42,488.42,0,0,0,1000.6,1026,487.94,487.94,0,0,0,1078,996.09c3.48-1.73,7-3.42,10.48-5.1,81.56-39,168.45-66.13,168.45-172C1256.89,766.29,1228,714.39,1187.92,678.47Z" transform="translate(-440.82)"/><path class="cls-3" d="M1511.82,1521.56c-67.93-15.18-126.68-11-131.22,9.3-.92,4.1.48,8.55,3.8,13.16a493,493,0,0,0,200.62,1.89C1565.34,1536.51,1540,1527.86,1511.82,1521.56Z" transform="translate(-440.82)"/><path class="cls-5" d="M2082.05,871.37a298.87,298.87,0,0,0-42.76-27.22c-37.75-20-78.31-34.56-119.54-45.47a705,705,0,0,0-129.7-21.6c-44.24-3.19-88.89-2-133,2.16-39.52,3.74-78.92,10.16-117.31,20.36.38,19.53,7.68,36.11.26,35.57-6.58-.48-13.41-11.37-27.18-27.73l-.06,0a319,319,0,0,0-50.07-57,409.73,409.73,0,0,0-62.17-46.15,484.56,484.56,0,0,0-70.17-35.15,539.58,539.58,0,0,0-76.5-24.48,555.42,555.42,0,0,0-80.52-13.23q-4.92-.43-9.85-.79a228.45,228.45,0,0,1,64.83,47.64,219,219,0,0,1,56.79,114.42c.47,2.82.9,5.64,1.27,8.47a233.57,233.57,0,0,1,1.22,46.69q-.4,5.65-1.09,11.29c-.11.91-.81,3-.36,3.87s3.14,1.64,4.14,2a82.64,82.64,0,0,0,21.34,4.54c5.12.49,10.75-.14,15.69,1.43,2.91.92,6.71,2,8.9,4.21,1.91,2-.69,3.55-2.11,4.88q-4.53,4.26-9.16,8.41c-9.7,8.75-19.56,17.38-29.91,25.36q-14,10.8-30.26,22c-33,22.79-67.54,43.3-102.76,62.44q-53.57,29.11-109.29,54-31.64,14.25-63.82,27.25c-22.2,9-44,17.28-65.29,24.85-30.82,11-62,21-93.51,29.76q-13.33,3.69-26.76,7,40.57-.12,81.13-1.69t81.09-4.44c24.4-1.74,48.79-3.76,73.12-6.35,16-1.7,32-3.57,48-5.46,16.54-2,33-4.2,49.5-6.64l9.48-1.42c32.56-5,63.44-10.55,92.25-16.6,47.26-9.92,88.94-21.14,123.42-33.17-20.38,14.77-55.31,32.13-97.37,47.74a714.45,714.45,0,0,1-81.46,25c-13.1,3.14-26.31,5.87-39.64,7.86-3.23.48-6.47,1-9.72,1.31-2,.2-4.48-.45-5.28,1.85a119.2,119.2,0,0,0-4.16,17.21c-4.86,26-3.67,52.86.69,78.83a333,333,0,0,0,21.7,73.69,349.5,349.5,0,0,0,36.17,65.8c14,19.9,30.22,38.37,49.09,53.79q3.75,3.08,7.66,6c-11.15,28.59-18.22,58.63-22.9,88.91q-3.61,23.41-5.29,47.06c-1.13,15.85-2,31.82-1.37,47.71a225.67,225.67,0,0,0,20.75,85.36,258.73,258.73,0,0,0,47.48,70.14c19.12,20.15,41.56,37.58,66.92,49.14q4.9,2.24,10,4.15c-17.85-16.08-32.35-35.63-44-56.61a301.54,301.54,0,0,1-27.41-69.71c-6.59-25.26-10.21-51.22-12.13-77.23a456.45,456.45,0,0,1,.77-80.06c2.62-25.5,7.64-51,17-74.88q1.67-4.24,3.52-8.42l.11-.08C1238,1301,1396,1074.09,1655.84,941.52c160.57-81.93,325.6-93.07,439.92-58.95C2093.7,881,2084.12,873,2082.05,871.37Z" transform="translate(-440.82)"/><path class="cls-6" d="M1840.48,1212.3c-1.07-19.14-2.61-36.54-5.18-55.53-11.69,2.28-40.86,5-61.33,6.54-24.74,1.92-49.57,2.56-74.37,2.19q-20.37-.32-40.7-1.65c2.58,23.72,15.43,45.88,29.15,66.1,12.87,19,31.44,36.2,48.8,50.57s37.29,26.27,58.81,32a93,93,0,0,0,29.25,3.26c2.34-.13,4.68-.37,7-.73,1.14-.17,2.28-.38,3.42-.61a5.68,5.68,0,0,0,2.5-.81c.64-.53,1.39-2.84,1.48-3.82.12-1.39.24-2.77.35-4.16.24-2.84.45-5.67.64-8.51a685.28,685.28,0,0,0,.68-74.75C1840.83,1219,1840.67,1215.66,1840.48,1212.3Z" transform="translate(-440.82)"/><path class="cls-7" d="M2130.5,908.65c-9.17-8.06-19.66-14.69-30.53-20.45-2.1-1.11-4.77-1.48-7.09-2.05s-4.87-1.15-7.31-1.68q-7.32-1.61-14.72-2.9a485.43,485.43,0,0,0-67-6.76,666.49,666.49,0,0,0-76.24,1.82A803.42,803.42,0,0,0,1844,887.78a733,733,0,0,0-80.66,19.59,699.63,699.63,0,0,0-73.54,27.11,645.2,645.2,0,0,0-65.26,32.7,518.25,518.25,0,0,0-55.06,36.31q-6,4.53-11.76,9.27c-19.49,15.39-34.26,36.71-45,58.41-3.47,7-7.07,14.46-8.52,22.13-.91,4.82.9,9,4.3,12.56,4.92,5.15,11.73,8.58,18.29,11.39a184.28,184.28,0,0,0,29.88,9.45c28.33,6.75,57.66,9.78,86.76,11.21a668.34,668.34,0,0,0,102.12-2.59q5.76-.61,11.53-1.34,38.37-.81,76.64-4.11c22.33-2,44.62-4.6,66.72-8.29,10.58-1.77,21.12-3.78,31.58-6.17q7.66-1.4,15.3-3c16.27-3.53,33-7.75,47.8-15.23,7.27-3.66,17.42-9.54,17.74-18.47a20.89,20.89,0,0,0-.87-7.86c-1.07-3-3.43-5.18-6-7-5.08-3.45-11.1-5.66-16.92-7.68-6.47-2.25-13.06-4.15-19.67-6-20.53-5.76-41.08-11.42-61.38-17.91-10.89-3.48-21.73-7.16-32.32-11.4-8-3.2-16.24-6.63-23.34-11.49-3.11-2.12-8.59-6.1-6.8-10.44.86-2.08,3.09-3.44,5.07-4.42a52,52,0,0,1,12.24-3.82c4.66-1.62,9.85-.86,14.51.37a107.59,107.59,0,0,1,18.31,7.19c14.55,6.89,28.61,14.79,43.8,20.38,9.39,3.46,19,5.44,28.94,7.13,35.5,6.06,68.5,6.81,94.29,3,19.73-7.15,36.79-15.21,50.61-24,17.82-11.31,36.67-27.5,39.59-49C2155.38,937.18,2144.22,920.72,2130.5,908.65Z" transform="translate(-440.82)"/><path class="cls-8" d="M1470.43,1393.47c-47-12.64-83.19-14.5-128.71-14.61-.18,0-.33-.84-.55.09l-40.23,2.66c-14.35,1.37-8.41,15.2-4.31,53,1.13,10.44,1,20.41,2.7,29.23a4.48,4.48,0,0,1,0,1.86,557.1,557.1,0,0,0-10.55,55q-1.05,7.53-1.93,15.18c-10.34,91.14,1.91,175.52,29.78,236.13,2.37,5.15,10.15,2.21,8.52-3.21a403.69,403.69,0,0,1-13.49-63.3c-11.33-85.89,5.16-163.52,38.6-203.36a4.59,4.59,0,0,1,2.32-1.48c26.59-7.18,57.6-11.3,90.72-11.3,1.68,0,3.35,0,5,0,75.39,1,139.12,23.24,163.33,54.15a4.54,4.54,0,0,0,8-1.55l0-.1C1634.6,1486.15,1567.82,1419.68,1470.43,1393.47Z" transform="translate(-440.82)"/><path class="cls-9" d="M1893.6,1146.77c-10.22,2.85-20.33,5.17-30.22,7l2.89,15.47c.38,74.39,8,141.36-11.08,180.52l-3.15.84c-39.86,8.77-147.9-35.72-180.75-82.55l-53.4-98.79c-46.71-17.19-110.93-4-166.13,44.21-44.21,38.61-69,88.85-72.45,133.45,53.54,16.65,89.37,14.95,138.67,43.42a370.15,370.15,0,0,1,51.39,35.63c40.33,33.51,66.12,71,70.09,101.8,178.67-60.24,311.34-220.45,331.52-414.11C1949.7,1126.87,1923.23,1138.51,1893.6,1146.77Z" transform="translate(-440.82)"/></svg>